<svg xmlns="http://www.w3.org/2000/svg" viewBox="0 0 214 144">
  <defs>
    <style>
      .cl-1{fill:#603813;}
      .cl-2{fill:#754c24;}
      .cl-3{fill:#8b6239;}
      .cl-4{opacity:0.8;}
      .cl-5,.cl-7{fill:#fff;}
      .cl-5{stroke:#000;stroke-miterlimit:10;}
      .cl-6{fill:#7f0e0e;}
    </style>
</defs>
<title>
  Back Button</title>
<g id="ART_5_Regester_Here" data-name="ART 5 Regester Here">
  <path class="cl-1" d="M205.14,113.42l-7,9a358.64,358.64,0,0,0-57,0c-23.73,1.89-35.46,5.23-65,9-17.16,2.18-36.21,4-57,5a87.35,87.35,0,0,1,8-9C77.19,78.46,173.62,103.88,205.14,113.42Z"/>
<path class="cl-1" d="M12.14,41.42l13,1q-4,18.49-8,37h11q-5.49,18.49-11,37h9q13.85-2.27,28-5a962.35,962.35,0,0,0,150-42q-5.49-15.51-11-31l6-3-184-9Z"/>
<path class="cl-2" d="M12.14,5.42l-7,8q3.51,14,7,28l7-8c3.32-4.52,8.89-6,13-4a8.78,8.78,0,0,1,5,8c-.32,5.41-7,9.4-12,8a9.14,9.14,0,0,1-5-4l-6,7,3,31,7-8c6.3-6.68,14-7.8,17-5,2.85,2.62,2.06,9.07-1,13s-9.17,6.53-13,4a7.82,7.82,0,0,1-3-5l-8,7q.51,15.49,1,31l8-7c6-8,14.59-10.06,19-7,3.27,2.26,4.92,7.77,3,11-2.62,4.43-11.11,3.18-15,2a20.58,20.58,0,0,1-6-3l-7,8v16a44.2,44.2,0,0,1,16-13c13.75-6.39,22.92-1,30-7,7.88-6.63,5.77-21,4-33-4-27.33-18.85-46-25-53A110.75,110.75,0,0,0,12.14,5.42Z"/>
<path class="cl-3" d="M12.14,5.42q3.51,14,7,28l15,4-14,4q2,15,4,30l11,1-11,6q.51,15.49,1,31l19-1-18,4q.51,7.5,1,15a545.08,545.08,0,0,0,58-4c20.52-2.52,29.56-4.8,46-7a409.71,409.71,0,0,1,74-3q-1-20-2-40l-8-3,9-1q-1-15.51-2-31l-13-3h10q-.49-13.5-1-27C74.14,12.42,14.14,6.42,12.14,5.42Z"/>
<g class="cl-4">
  <path class="cl-5" d="M57.72,69.2A110.61,110.61,0,0,1,45.44,69c-1.78-.44-2.11-1.1-2.16-3.18-.18-7.37-.67-21-.93-31.57-.07-2.86.25-4.52,3.46-5.69,2.12-.79,8.15-1.61,12.85-1.72,11-.27,16.5,2.09,16.67,9.16.1,4.09-2.06,7.43-7.66,9.16,5.23.48,10.17,3.71,10.33,10.24C78.19,63.21,70.71,68.88,57.72,69.2Zm-.49-19.75L57.1,63.3c3.81-.15,6.38-1.62,6.24-7.29S60.72,49.12,57.23,49.45Zm1.73-17a5.59,5.59,0,0,0-1.67.29l-.14,11.35c3.91-.4,5.48-2.21,5.37-6.91C62.43,33.53,60.89,32.4,59,32.45Z"/>
<path class="cl-5" d="M111.75,67.14a41.8,41.8,0,0,1-8.48,1.37c-2.29.06-3.25-.53-3.66-2.72-.73-4.13-1-6-1.39-7.4a87.43,87.43,0,0,0-11,1.06,43.23,43.23,0,0,0-.82,7c-.08,1.41-.79,2.1-1.88,2.12a24.79,24.79,0,0,1-3.93-.27c-1-.22-1.32-.76-1.36-2.16,0-2.07,2.36-12.5,3.73-18.27,1.47-6.13,3.15-12.33,4.79-17.56.73-2.21,1.39-3.08,2.79-3.3,2.6-.37,8.54-.88,10.26-.92s3,1.27,3.85,3.44a127.71,127.71,0,0,1,4.51,13.55c2.07,8.07,4.62,18.37,4.69,21.3C113.92,66.23,113.67,66.61,111.75,67.14ZM92.19,36a144,144,0,0,0-3.82,16.68c1.35-.27,6.3-.7,8.6-.82A126.37,126.37,0,0,0,92.19,36Z"/>
<path class="cl-5" d="M144.31,64.27c-2.63,1.65-7,2.55-10.95,2.65-10.8.26-18.58-6.26-18.9-19.24C114.07,32,124.93,25.41,136.4,25.12c3-.07,4.71.19,6,.77s1.5,1.37,1.54,2.95c0,1.89-1,3.38-2.16,3.41-.94,0-1.69-.57-3.88-.52-5.47.14-8.74,5.4-8.52,14.24.26,10.79,4.1,13.87,8.79,13.75,2.09,0,3.93-1.43,5-1.46,1.3,0,2.16.8,2.21,3C145.47,62.72,145.13,63.76,144.31,64.27Z"/>
<path class="cl-5" d="M183.21,64.9c-.82.45-10.45,1.66-11.39,1.68s-1.63-.51-1.67-2c-.2-8.17-.56-12.43-7.75-11.82l0,8.23c0,3.05-.63,4.1-2.86,4.52-1.2.21-6.39,1.13-8.27,1.18A2.37,2.37,0,0,1,148.79,64c-.3-8.11-1.22-32.85-1.25-34-.07-2.69.37-4.1,3-4.71a73.29,73.29,0,0,1,9.26-1.09c1.72,0,2.74,1,2.72,4.33l-.08,18.12c9.19-1.94,9.44-10.91,9.22-19.75-.06-2.44.77-2.76,1.92-2.79.68,0,6.37.15,7,.32.89.28,1.38,1.12,1.46,4.11.19,8-2,15.72-8.93,19.25,5.6.41,11,5.64,11.24,15.34A1.82,1.82,0,0,1,183.21,64.9Z"/>
</g>
<g class="cl-4">
  <path d="M81.61,97.85a1.9,1.9,0,0,0,.5-.52c1.69-1.92,3.44-3.76,5.24-5.57s3.31-3.35,5-5a125.32,125.32,0,0,1,9.47-8.68c.54-.44.54-.42,1.12-.07,1.67,1,3.31,2.09,5,3a.8.8,0,0,1,.45.65c.12.89.28,1.77.42,2.69l1.14-.48q12.17-5.3,24.42-10.36a1.45,1.45,0,0,0,.25-.11.61.61,0,0,1,.83.11q2.65,2.2,5.42,4.32a.64.64,0,0,1,.21.52q.72,7.1,1.28,14.2t1.15,14.06c0,.48,0,.48-.43.41-4.07-.62-8.14-1.29-12.25-1.59a172.51,172.51,0,0,0-18-.41l-.16,0c.66,3.2,1.36,6.39,2.17,9.59a11.07,11.07,0,0,1-1.3-.57c-2-1-4-2.1-6-3.15-1.33-.71-2.71-1.28-4.07-1.92-3.49-1.62-7-3.28-10.42-4.94L84.53,100,81.8,98.67c-.08,0-.15-.1-.24,0-.35-.27-.35-.27-.08-.62Zm20.44-19.12c-.8.77-1.62,1.59-2.46,2.4-2.16,2.06-4.33,4.12-6.48,6.2s-4,4-5.89,6l-4,4.28c-.11.13-.17.19,0,.3,2.21,1.11,4.43,2.22,6.64,3.35l7.83,4c2.66,1.36,5.31,2.72,7.94,4.13l.67.36c0-.51-.06-1-.14-1.55q-.52-3.69-1.07-7.4c0-.21,0-.25.22-.24.81,0,1.63.06,2.44.08,5.59.18,11.18.22,16.77.32,4,.08,8,.21,12,.36.37,0,.37,0,.33-.42-.2-2.24-.34-4.48-.48-6.72-.22-3.56-.47-7.12-.72-10.68q-.28-4-.56-8.09c0-.56-.08-1.12-.12-1.7l-3.76,1.76c-3.82,1.8-7.67,3.55-11.51,5.31-4.12,1.88-8.25,3.76-12.41,5.58-1.24.54-2.51,1-3.8,1.44-.2.07-.25,0-.27-.18,0-.39-.09-.78-.14-1.17-.23-1.8-.45-3.6-.69-5.4C102.33,80.29,102.17,79.5,102.05,78.73Z"/>
<path class="cl-6" d="M125.1,131.47l0,0v.06Z"/>
<path class="cl-7" d="M102.05,78.73c.12.77.28,1.56.38,2.36.24,1.8.46,3.6.69,5.4,0,.39.1.78.14,1.17,0,.2.07.25.27.18,1.29-.42,2.56-.9,3.8-1.44,4.16-1.82,8.29-3.7,12.41-5.58,3.84-1.76,7.69-3.51,11.51-5.31L135,73.75c0,.58.08,1.14.12,1.7q.27,4,.56,8.09c.25,3.56.5,7.12.72,10.68.14,2.24.28,4.48.48,6.72,0,.44,0,.44-.33.42-4-.15-8-.28-12-.36-5.59-.1-11.18-.14-16.77-.32-.81,0-1.63,0-2.44-.08-.2,0-.25,0-.22.24q.54,3.7,1.07,7.4c.08.52.1,1,.14,1.55l-.67-.36c-2.63-1.41-5.28-2.77-7.94-4.13l-7.83-4c-2.21-1.13-4.43-2.24-6.64-3.35-.22-.11-.16-.17,0-.3l4-4.28c1.92-2,3.87-4.07,5.89-6s4.32-4.14,6.48-6.2C100.43,80.32,101.25,79.5,102.05,78.73Z"/>
</g>
</g>
</svg>