<svg xmlns="http://www.w3.org/2000/svg" viewBox="0 0 1305 875"><defs><style>.cls-1{opacity:0.67;}.cls-2{fill:#45c9f4;}.cls-3{fill:#fbfcfd;}.cls-4{fill:#edf7fc;}.cls-5{opacity:0.51;}.cls-6{opacity:0.71;}</style></defs><title>Blue Sky Bground 2</title><g id="ART_2_Campground_Map" data-name="ART 2 Campground Map"><rect id="Blue_Background" data-name="Blue Background" class="cls-2" width="1305" height="875"/><g id="Sky_Specks_copy" data-name="Sky Specks copy" class="cls-1"><path class="cls-3" d="M477.17,75.81c-.75,1.33-1.84.94-2.71.42-2.44-1.45-3.75-.64-4.44,1.91-.27,1-.76,2.19-2.1,1.68s-1.17-1.69-.59-2.64c1.42-2.35.85-3.74-1.8-4.43-1.14-.29-2.35-.85-1.65-2.33.6-1.28,1.8-.85,2.69-.3,2.41,1.48,3.55.5,4.21-1.89.31-1.13.94-2.28,2.38-1.72s.91,1.88.47,2.68c-1.5,2.72-.23,3.85,2.24,4.55C476.87,74,477.51,74.67,477.17,75.81Z"/><path class="cls-3" d="M1184.11,132.75c-.76,1.33-1.84.95-2.72.43-2.44-1.45-3.75-.65-4.43,1.91-.27,1-.77,2.18-2.1,1.68s-1.17-1.69-.6-2.64c1.42-2.36.85-3.75-1.8-4.43-1.13-.3-2.35-.85-1.65-2.33.6-1.28,1.8-.86,2.7-.3,2.4,1.48,3.55.49,4.2-1.89.32-1.14.94-2.28,2.38-1.73s.92,1.89.48,2.69c-1.5,2.71-.24,3.85,2.23,4.55C1183.81,131,1184.44,131.62,1184.11,132.75Z"/><path class="cls-3" d="M1277.61,56.64c0,1.53-1.13,1.74-2.15,1.72-2.83,0-3.57,1.31-2.89,3.87.26,1,.42,2.27-1,2.49s-1.85-.88-1.82-2c.06-2.75-1.12-3.67-3.77-2.95-1.13.31-2.46.43-2.59-1.21-.11-1.4,1.14-1.63,2.19-1.59,2.83.09,3.33-1.34,2.72-3.73-.29-1.14-.32-2.45,1.2-2.68s1.74,1.18,1.75,2.09c0,3.1,1.71,3.46,4.2,2.84C1276.46,55.25,1277.34,55.49,1277.61,56.64Z"/><path class="cls-4" d="M186.56,124.92c-.07,1.36-.82,2.28-2.18,2.22a2.08,2.08,0,0,1-2-2.46,1.94,1.94,0,0,1,2-2C185.82,122.63,186.52,123.49,186.56,124.92Z"/><path class="cls-4" d="M261.07,65.38c-.07,1.37-.82,2.29-2.18,2.22a2.07,2.07,0,0,1-2-2.45,1.94,1.94,0,0,1,2-2C260.33,63.1,261,64,261.07,65.38Z"/><path class="cls-4" d="M352.14,90.19c-.07,1.37-.82,2.29-2.18,2.22A2.08,2.08,0,0,1,348,90a2,2,0,0,1,2-2C351.39,87.9,352.09,88.76,352.14,90.19Z"/><path class="cls-4" d="M432.56,67.85c-.07,1.37-.82,2.29-2.18,2.22a2.07,2.07,0,0,1-2-2.45,1.94,1.94,0,0,1,2-2C431.82,65.56,432.52,66.42,432.56,67.85Z"/><path class="cls-4" d="M497.29,142c-.07,1.37-.82,2.29-2.18,2.22a2.08,2.08,0,0,1-2-2.45,2,2,0,0,1,2-2C496.54,139.73,497.24,140.59,497.29,142Z"/><path class="cls-4" d="M591.37,69.13c-.07,1.36-.82,2.29-2.18,2.22a2.08,2.08,0,0,1-2-2.45,2,2,0,0,1,2-2C590.63,66.84,591.32,67.7,591.37,69.13Z"/><path class="cls-4" d="M689,95c-.07,1.37-.82,2.29-2.18,2.22a2.08,2.08,0,0,1-2-2.45,2,2,0,0,1,2-2C688.22,92.71,688.92,93.57,689,95Z"/><path class="cls-4" d="M718.63,77.64c-.07,1.36-.82,2.29-2.18,2.22a2.09,2.09,0,0,1-2-2.45,2,2,0,0,1,2-2C717.88,75.35,718.58,76.21,718.63,77.64Z"/><path class="cls-4" d="M1142.82,118.79c-.07,1.36-.82,2.28-2.18,2.22a2.07,2.07,0,0,1-2-2.45,2,2,0,0,1,2-2C1142.07,116.5,1142.77,117.36,1142.82,118.79Z"/><path class="cls-4" d="M1233.54,129.17c-.07,1.37-.82,2.29-2.18,2.22a2.08,2.08,0,0,1-2-2.45,1.93,1.93,0,0,1,2-2C1232.8,126.88,1233.49,127.74,1233.54,129.17Z"/><path class="cls-4" d="M962.05,89.51c-.07,1.37-.82,2.29-2.18,2.22a2.08,2.08,0,0,1-2-2.45,1.94,1.94,0,0,1,2-2C961.31,87.22,962,88.08,962.05,89.51Z"/><path class="cls-4" d="M1230.05,294.13c-.07,1.36-.82,2.29-2.18,2.22a2.08,2.08,0,0,1-2-2.45,2,2,0,0,1,2-2C1229.31,291.84,1230,292.7,1230.05,294.13Z"/><path class="cls-4" d="M1240.44,481.36c-.07,1.37-.83,2.29-2.18,2.22a2.08,2.08,0,0,1-2-2.45,2,2,0,0,1,2-2C1239.69,479.07,1240.39,479.93,1240.44,481.36Z"/><path class="cls-4" d="M1227.5,773.28c-.07,1.36-.82,2.28-2.18,2.22a2.08,2.08,0,0,1-2-2.45,2,2,0,0,1,2-2C1226.75,771,1227.45,771.85,1227.5,773.28Z"/><path class="cls-4" d="M1263.07,686.81c-.07,1.36-.82,2.29-2.18,2.22a2.08,2.08,0,0,1-2-2.45,1.94,1.94,0,0,1,2-2C1262.33,684.52,1263,685.38,1263.07,686.81Z"/><path class="cls-4" d="M1251.16,858.55c-.07,1.37-.82,2.29-2.18,2.22a2.07,2.07,0,0,1-2-2.45,1.94,1.94,0,0,1,2-2C1250.41,856.27,1251.11,857.12,1251.16,858.55Z"/><path class="cls-4" d="M1142.9,800.34c-.07,1.37-.82,2.29-2.18,2.22a2.08,2.08,0,0,1-2-2.45,1.94,1.94,0,0,1,2-2C1142.16,798.05,1142.86,798.91,1142.9,800.34Z"/><path class="cls-4" d="M935.24,824.51c-.07,1.37-.82,2.29-2.18,2.22a2.08,2.08,0,0,1-2-2.45,1.94,1.94,0,0,1,2-2C934.5,822.22,935.2,823.08,935.24,824.51Z"/><path class="cls-4" d="M674.14,858c-.07,1.37-.82,2.29-2.18,2.22a2.08,2.08,0,0,1-2-2.45,2,2,0,0,1,2-2C673.39,855.76,674.09,856.61,674.14,858Z"/><path class="cls-4" d="M788.61,797.89c-.07,1.37-.83,2.29-2.18,2.22a2.08,2.08,0,0,1-2-2.45,2,2,0,0,1,2-2C787.86,795.61,788.56,796.46,788.61,797.89Z"/><path class="cls-4" d="M410.33,827.83c-.07,1.37-.82,2.29-2.18,2.22a2.08,2.08,0,0,1-2-2.45,1.93,1.93,0,0,1,2-2C409.58,825.54,410.28,826.4,410.33,827.83Z"/><path class="cls-3" d="M1269.62,374.36c-1.31.78-2.06-.09-2.57-1-1.4-2.47-2.94-2.42-4.8-.53-.73.74-1.74,1.52-2.65.41s-.18-2,.78-2.59c2.4-1.34,2.6-2.83.63-4.74-.84-.81-1.62-1.9-.28-2.84,1.16-.81,2,.15,2.49,1.08,1.36,2.47,2.84,2.18,4.59.44.84-.83,1.94-1.52,2.92-.33s-.13,2.09-.91,2.57c-2.65,1.62-2.11,3.23-.31,5.06A1.55,1.55,0,0,1,1269.62,374.36Z"/><path class="cls-3" d="M901.15,53.8c-.75,1.33-1.84.94-2.71.42-2.45-1.45-3.75-.64-4.44,1.91-.27,1-.76,2.19-2.1,1.68s-1.17-1.69-.6-2.64c1.42-2.35.85-3.74-1.8-4.43-1.13-.29-2.35-.85-1.65-2.33.61-1.28,1.8-.85,2.7-.3,2.4,1.48,3.55.49,4.21-1.89.31-1.13.93-2.28,2.37-1.73s.92,1.89.48,2.69c-1.5,2.72-.23,3.85,2.24,4.55C900.85,52,901.48,52.66,901.15,53.8Z"/><path class="cls-3" d="M1182.24,754.94c-.76,1.34-1.84.95-2.72.43-2.44-1.45-3.75-.65-4.43,1.91-.28,1-.77,2.18-2.11,1.68s-1.17-1.69-.59-2.64c1.42-2.36.85-3.74-1.8-4.43-1.14-.29-2.35-.85-1.65-2.33.6-1.28,1.8-.85,2.69-.3,2.41,1.48,3.55.49,4.21-1.89.32-1.13.94-2.28,2.38-1.73s.92,1.89.47,2.69c-1.5,2.72-.23,3.85,2.24,4.55C1181.93,753.16,1182.57,753.81,1182.24,754.94Z"/><path class="cls-3" d="M1078,830c-1.14,1-2,.3-2.7-.47-1.85-2.16-3.35-1.82-4.82.38-.58.87-1.42,1.82-2.53.91s-.56-2,.29-2.69c2.1-1.77,2-3.27-.28-4.78-1-.64-2-1.56-.81-2.73,1-1,2-.23,2.65.58,1.8,2.18,3.2,1.61,4.59-.43.66-1,1.62-1.86,2.81-.87s.26,2.08-.42,2.7c-2.29,2.08-1.46,3.57.66,5A1.56,1.56,0,0,1,1078,830Z"/><path class="cls-3" d="M812.84,847.72c-.64,1.39-1.76,1.09-2.67.65-2.56-1.24-3.79-.33-4.26,2.28-.19,1-.58,2.23-2,1.84s-1.3-1.59-.81-2.58c1.22-2.46.54-3.8-2.16-4.26-1.16-.2-2.42-.65-1.84-2.19.49-1.32,1.72-1,2.66-.52,2.52,1.28,3.58.19,4-2.23.21-1.16.74-2.36,2.22-1.92s1.07,1.8.7,2.63c-1.27,2.83.09,3.86,2.61,4.35C812.39,846,813.08,846.56,812.84,847.72Z"/><path class="cls-3" d="M281.73,864.24c-.76,1.33-1.84.94-2.72.43-2.44-1.45-3.75-.65-4.44,1.91-.27,1-.76,2.18-2.1,1.68s-1.17-1.69-.59-2.64c1.42-2.36.85-3.75-1.8-4.43-1.14-.3-2.35-.85-1.65-2.34.6-1.27,1.8-.85,2.69-.29,2.41,1.48,3.55.49,4.21-1.89.31-1.14.94-2.28,2.38-1.73s.92,1.89.47,2.69c-1.5,2.71-.23,3.85,2.24,4.55C281.42,862.46,282.06,863.11,281.73,864.24Z"/><path class="cls-3" d="M134.49,802c-1.18,1-2.05.22-2.68-.58-1.76-2.23-3.27-2-4.83.19-.62.85-1.5,1.76-2.56.81s-.49-2,.39-2.68c2.17-1.68,2.14-3.19-.09-4.78-1-.68-1.88-1.64-.7-2.77,1-1,2-.15,2.63.69,1.71,2.25,3.13,1.74,4.6-.25.7-.94,1.7-1.79,2.84-.75s.18,2.09-.52,2.67c-2.38,2-1.6,3.51.45,5.06A1.55,1.55,0,0,1,134.49,802Z"/><path class="cls-3" d="M33.14,411.74c-1.09,1.08-2,.41-2.73-.33-2-2.06-3.44-1.64-4.79.64-.54.9-1.33,1.89-2.48,1s-.67-1.95.14-2.7c2-1.88,1.84-3.37-.52-4.76-1-.59-2-1.45-1-2.69.93-1.06,2-.33,2.68.45,1.91,2.08,3.28,1.44,4.56-.68.61-1,1.52-1.94,2.76-1s.37,2.06-.27,2.71c-2.19,2.21-1.27,3.64.91,5A1.56,1.56,0,0,1,33.14,411.74Z"/><path class="cls-3" d="M73.58,315.18c-.76,1.33-1.84.94-2.72.42-2.44-1.45-3.75-.64-4.43,1.92-.28,1-.77,2.18-2.11,1.67s-1.17-1.69-.59-2.64c1.42-2.35.85-3.74-1.8-4.43-1.14-.29-2.35-.85-1.65-2.33.6-1.28,1.8-.85,2.69-.3,2.41,1.49,3.56.5,4.21-1.89.32-1.13.94-2.28,2.38-1.72s.92,1.88.47,2.68c-1.49,2.72-.23,3.85,2.24,4.55C73.27,313.4,73.91,314,73.58,315.18Z"/><path class="cls-4" d="M228,852.17c-.07,1.37-.82,2.29-2.18,2.22a2.08,2.08,0,0,1-2-2.45,1.93,1.93,0,0,1,2-2C227.27,849.88,228,850.74,228,852.17Z"/><path class="cls-4" d="M188,782.17c-.07,1.37-.82,2.29-2.18,2.22a2.08,2.08,0,0,1-2-2.45,1.93,1.93,0,0,1,2-2C187.27,779.88,188,780.74,188,782.17Z"/><path class="cls-4" d="M58.54,843.87c-.07,1.37-.82,2.29-2.18,2.22a2.07,2.07,0,0,1-2-2.45,1.94,1.94,0,0,1,2-2C57.8,841.58,58.49,842.44,58.54,843.87Z"/><path class="cls-4" d="M10.46,676.38c-.07,1.37-.82,2.29-2.18,2.22a2.08,2.08,0,0,1-2-2.45,2,2,0,0,1,2-2C9.71,674.1,10.41,675,10.46,676.38Z"/><path class="cls-4" d="M67.65,577.79c-.07,1.36-.82,2.28-2.18,2.22a2.07,2.07,0,0,1-2-2.45,2,2,0,0,1,2-2C66.9,575.5,67.6,576.36,67.65,577.79Z"/><path class="cls-4" d="M65.76,429.74c-.07,1.37-.83,2.29-2.19,2.23a2.08,2.08,0,0,1-2-2.46,1.94,1.94,0,0,1,2-2C65,427.46,65.71,428.31,65.76,429.74Z"/><path class="cls-4" d="M99.76,378.74c-.07,1.37-.83,2.29-2.19,2.23a2.08,2.08,0,0,1-2-2.46,1.94,1.94,0,0,1,2-2C99,376.46,99.71,377.31,99.76,378.74Z"/><path class="cls-4" d="M32,47.3c-.07,1.36-.82,2.29-2.18,2.22a2.08,2.08,0,0,1-2-2.45,1.93,1.93,0,0,1,2-2C31.24,45,31.94,45.87,32,47.3Z"/><path class="cls-3" d="M546.74,575.23c-1.09,1.08-2,.41-2.73-.33-2-2-3.43-1.64-4.79.64-.53.9-1.32,1.89-2.47,1s-.67-1.94.14-2.7c2-1.88,1.84-3.37-.53-4.75-1-.59-2-1.46-1-2.7.93-1.06,2-.33,2.67.45,1.91,2.08,3.29,1.44,4.57-.67.61-1,1.52-1.94,2.75-1s.37,2.07-.27,2.72c-2.18,2.2-1.27,3.64.92,5A1.55,1.55,0,0,1,546.74,575.23Z"/><path class="cls-3" d="M517.18,426.67c-.75,1.33-1.84.94-2.71.42-2.45-1.44-3.75-.64-4.44,1.92-.27,1-.76,2.18-2.1,1.67s-1.17-1.69-.6-2.63c1.43-2.36.86-3.75-1.8-4.43-1.13-.3-2.34-.85-1.64-2.34.6-1.27,1.79-.85,2.69-.29,2.4,1.48,3.55.49,4.21-1.89.31-1.14.93-2.28,2.37-1.73s.92,1.89.48,2.69c-1.5,2.71-.23,3.85,2.24,4.55C516.88,424.89,517.52,425.54,517.18,426.67Z"/><path class="cls-4" d="M532.06,800.88c-.07,1.36-.82,2.28-2.18,2.22a2.08,2.08,0,0,1-2-2.46,1.94,1.94,0,0,1,2-2C531.32,798.59,532,799.45,532.06,800.88Z"/><path class="cls-4" d="M589.26,702.28c-.07,1.37-.83,2.29-2.19,2.22a2.08,2.08,0,0,1-2-2.45,1.94,1.94,0,0,1,2-2C588.51,700,589.21,700.85,589.26,702.28Z"/><path class="cls-4" d="M579.36,593.24c-.07,1.36-.82,2.28-2.18,2.22a2.08,2.08,0,0,1-2-2.45,2,2,0,0,1,2-2C578.62,591,579.31,591.81,579.36,593.24Z"/><path class="cls-4" d="M613.36,542.24c-.07,1.36-.82,2.28-2.18,2.22a2.08,2.08,0,0,1-2-2.45,2,2,0,0,1,2-2C612.62,540,613.31,540.81,613.36,542.24Z"/><path class="cls-3" d="M299.6,383c-.75,1.33-1.84.94-2.71.42-2.45-1.45-3.75-.64-4.44,1.92-.27,1-.76,2.18-2.1,1.67s-1.17-1.69-.6-2.64c1.43-2.35.85-3.74-1.8-4.43-1.13-.29-2.35-.85-1.64-2.33.6-1.28,1.79-.85,2.69-.3,2.4,1.49,3.55.5,4.21-1.89.31-1.13.93-2.28,2.37-1.72s.92,1.88.48,2.68c-1.5,2.72-.23,3.85,2.24,4.55C299.3,381.22,299.94,381.86,299.6,383Z"/><path class="cls-3" d="M393.11,306.89c0,1.53-1.13,1.73-2.15,1.72-2.84-.05-3.58,1.3-2.9,3.86.27,1,.42,2.27-1,2.5s-1.86-.89-1.83-2c.06-2.75-1.12-3.67-3.76-3-1.13.31-2.46.43-2.59-1.2-.11-1.41,1.14-1.63,2.19-1.6,2.82.09,3.33-1.33,2.71-3.73-.29-1.14-.32-2.44,1.21-2.68s1.73,1.18,1.75,2.1c0,3.1,1.71,3.45,4.2,2.83C392,305.49,392.83,305.74,393.11,306.89Z"/><path class="cls-4" d="M258.31,369c-.07,1.37-.82,2.29-2.18,2.22a2.07,2.07,0,0,1-2-2.45,1.94,1.94,0,0,1,2-2C257.57,366.74,258.26,367.6,258.31,369Z"/><path class="cls-4" d="M349,379.42c-.07,1.36-.82,2.28-2.18,2.22a2.09,2.09,0,0,1-2-2.46,2,2,0,0,1,2-2C348.29,377.13,349,378,349,379.42Z"/><path class="cls-4" d="M349.55,465.37c-.07,1.37-.82,2.29-2.18,2.22a2.08,2.08,0,0,1-2-2.45,2,2,0,0,1,2-2C348.8,463.08,349.5,463.94,349.55,465.37Z"/><path class="cls-3" d="M389.12,545.61c-1.31.78-2.07-.09-2.57-1-1.41-2.47-2.94-2.41-4.8-.53-.74.75-1.75,1.52-2.66.42s-.18-2,.79-2.59c2.4-1.34,2.59-2.83.62-4.74-.83-.82-1.62-1.9-.27-2.84,1.15-.81,2,.15,2.48,1.07,1.36,2.48,2.85,2.19,4.6.44.83-.83,1.94-1.52,2.92-.33s-.14,2.1-.92,2.57c-2.65,1.62-2.1,3.24-.3,5.07A1.55,1.55,0,0,1,389.12,545.61Z"/><path class="cls-4" d="M211.91,514.87c-.07,1.37-.82,2.29-2.18,2.22a2.07,2.07,0,0,1-2-2.45,1.94,1.94,0,0,1,2-2C211.16,512.58,211.86,513.44,211.91,514.87Z"/><path class="cls-4" d="M222.29,702.11c-.07,1.36-.82,2.28-2.18,2.22a2.08,2.08,0,0,1-2-2.45,1.94,1.94,0,0,1,2-2C221.55,699.82,222.24,700.68,222.29,702.11Z"/><path class="cls-3" d="M251.48,595.11c-1.31.78-2.06-.09-2.57-1-1.41-2.47-2.94-2.41-4.8-.53-.74.75-1.74,1.52-2.66.42s-.18-2,.79-2.59c2.4-1.34,2.59-2.83.63-4.74-.84-.82-1.62-1.9-.28-2.84,1.15-.81,2,.15,2.49,1.07,1.35,2.48,2.84,2.19,4.59.44.83-.83,1.94-1.52,2.92-.33s-.14,2.1-.92,2.57c-2.64,1.62-2.1,3.24-.3,5.07A1.55,1.55,0,0,1,251.48,595.11Z"/><path class="cls-4" d="M360.27,198c-.07,1.37-.83,2.29-2.18,2.22a2.07,2.07,0,0,1-2-2.45,2,2,0,0,1,2-2C359.52,195.74,360.22,196.6,360.27,198Z"/><path class="cls-4" d="M99.16,231.56c-.07,1.37-.82,2.29-2.18,2.22a2.07,2.07,0,0,1-2-2.45,1.94,1.94,0,0,1,2-2C98.41,229.28,99.11,230.13,99.16,231.56Z"/><path class="cls-4" d="M213.63,171.42c-.07,1.36-.82,2.28-2.18,2.22a2.09,2.09,0,0,1-2-2.46,2,2,0,0,1,2-2C212.88,169.13,213.58,170,213.63,171.42Z"/><path class="cls-3" d="M237.86,221.24c-.64,1.39-1.75,1.09-2.67.65-2.56-1.24-3.79-.33-4.26,2.28-.19,1-.58,2.24-2,1.84s-1.3-1.58-.81-2.58c1.22-2.46.54-3.8-2.16-4.26-1.16-.2-2.41-.65-1.84-2.19.49-1.32,1.72-1,2.66-.52,2.52,1.28,3.58.2,4-2.23.21-1.16.74-2.35,2.22-1.92s1.07,1.8.7,2.63c-1.27,2.84.09,3.86,2.61,4.35C237.41,219.49,238.1,220.08,237.86,221.24Z"/><path class="cls-3" d="M844,177.55c-.75,1.33-1.84.94-2.71.42-2.45-1.45-3.75-.64-4.44,1.91-.27,1-.76,2.19-2.1,1.68s-1.17-1.69-.6-2.64c1.42-2.35.85-3.74-1.8-4.43-1.13-.29-2.35-.85-1.65-2.33.61-1.28,1.8-.85,2.7-.3,2.4,1.48,3.55.49,4.21-1.89.31-1.13.93-2.28,2.37-1.73s.92,1.89.48,2.69c-1.5,2.72-.23,3.85,2.24,4.55C843.66,175.76,844.3,176.41,844,177.55Z"/><path class="cls-4" d="M553.35,226.65c-.07,1.37-.82,2.29-2.18,2.22a2.07,2.07,0,0,1-2-2.45,1.94,1.94,0,0,1,2-2C552.61,224.37,553.3,225.22,553.35,226.65Z"/><path class="cls-4" d="M627.86,167.12c-.07,1.37-.82,2.29-2.18,2.22a2.07,2.07,0,0,1-2-2.45,1.94,1.94,0,0,1,2-2C627.12,164.83,627.81,165.69,627.86,167.12Z"/><path class="cls-4" d="M718.93,191.93c-.07,1.37-.83,2.29-2.19,2.22a2.08,2.08,0,0,1-2-2.45,1.94,1.94,0,0,1,2-2C718.18,189.64,718.88,190.5,718.93,191.93Z"/><path class="cls-4" d="M799.35,169.59c-.07,1.37-.82,2.29-2.18,2.22a2.08,2.08,0,0,1-2-2.45,1.93,1.93,0,0,1,2-2C798.61,167.3,799.3,168.16,799.35,169.59Z"/><path class="cls-4" d="M864.07,243.76c-.07,1.37-.82,2.29-2.18,2.22a2.08,2.08,0,0,1-2-2.45,1.94,1.94,0,0,1,2-2C863.33,241.47,864,242.33,864.07,243.76Z"/><path class="cls-4" d="M727.05,299.77c-.07,1.37-.82,2.29-2.18,2.22a2.08,2.08,0,0,1-2-2.45,1.94,1.94,0,0,1,2-2C726.31,297.48,727,298.34,727.05,299.77Z"/><path class="cls-4" d="M580.42,273.15c-.08,1.37-.83,2.29-2.19,2.22a2.07,2.07,0,0,1-2-2.45,1.94,1.94,0,0,1,2-2C579.67,270.87,580.37,271.72,580.42,273.15Z"/><path class="cls-3" d="M604.65,323c-.64,1.39-1.76,1.09-2.67.65-2.56-1.24-3.79-.33-4.26,2.28-.19,1-.58,2.23-2,1.84s-1.3-1.58-.81-2.58c1.22-2.46.53-3.8-2.17-4.26-1.15-.2-2.41-.65-1.83-2.19.49-1.32,1.72-1,2.66-.52,2.52,1.28,3.58.19,4-2.23.22-1.16.74-2.36,2.23-1.92s1.07,1.8.7,2.63c-1.27,2.83.09,3.86,2.61,4.35C604.2,321.23,604.89,321.82,604.65,323Z"/><path class="cls-4" d="M384.46,645c-.07,1.36-.82,2.28-2.18,2.22a2.09,2.09,0,0,1-2-2.46,2,2,0,0,1,2-2C383.71,642.72,384.41,643.58,384.46,645Z"/><path class="cls-4" d="M459,585.47c-.07,1.37-.82,2.29-2.18,2.22a2.08,2.08,0,0,1-2-2.45,2,2,0,0,1,2-2C458.22,583.19,458.92,584,459,585.47Z"/><path class="cls-4" d="M411.52,691.51c-.07,1.36-.82,2.28-2.18,2.22a2.08,2.08,0,0,1-2-2.46,1.94,1.94,0,0,1,2-2C410.78,689.22,411.47,690.08,411.52,691.51Z"/><path class="cls-4" d="M1088.61,435.78c-.07,1.37-.83,2.29-2.18,2.22a2.08,2.08,0,0,1-2-2.45,2,2,0,0,1,2-2C1087.86,433.5,1088.56,434.35,1088.61,435.78Z"/><path class="cls-3" d="M960,472.2c-.75,1.33-1.84.94-2.71.42-2.45-1.45-3.75-.64-4.44,1.91-.27,1-.76,2.19-2.1,1.68s-1.17-1.69-.6-2.64c1.42-2.35.85-3.74-1.8-4.43-1.13-.29-2.35-.85-1.65-2.33.61-1.28,1.8-.85,2.7-.3,2.4,1.48,3.55.5,4.21-1.89.31-1.13.93-2.28,2.37-1.72s.92,1.88.48,2.68c-1.5,2.72-.23,3.85,2.24,4.55C959.7,470.41,960.34,471.06,960,472.2Z"/><path class="cls-3" d="M812.77,409.91c-1.18,1-2.06.21-2.69-.59-1.75-2.23-3.26-1.95-4.82.19-.62.85-1.5,1.77-2.57.81s-.48-2,.4-2.68c2.17-1.68,2.14-3.18-.09-4.78-1-.68-1.89-1.63-.7-2.77,1-1,2-.14,2.62.7,1.71,2.25,3.14,1.74,4.61-.25.7-1,1.69-1.79,2.84-.76s.18,2.09-.52,2.68c-2.38,2-1.61,3.51.45,5.05A1.56,1.56,0,0,1,812.77,409.91Z"/><path class="cls-4" d="M906.29,460.12c-.07,1.37-.82,2.29-2.18,2.23a2.09,2.09,0,0,1-2-2.46,2,2,0,0,1,2-2C905.54,457.84,906.24,458.69,906.29,460.12Z"/><path class="cls-4" d="M866.29,390.12c-.07,1.37-.82,2.29-2.18,2.23a2.09,2.09,0,0,1-2-2.46,2,2,0,0,1,2-2C865.54,387.84,866.24,388.69,866.29,390.12Z"/><path class="cls-4" d="M736.82,451.83c-.07,1.36-.82,2.28-2.18,2.22a2.07,2.07,0,0,1-2-2.45,1.94,1.94,0,0,1,2-2C736.07,449.54,736.77,450.4,736.82,451.83Z"/><path class="cls-4" d="M1122.54,255.87c-.07,1.37-.82,2.29-2.18,2.22a2.07,2.07,0,0,1-2-2.45,1.94,1.94,0,0,1,2-2C1121.8,253.58,1122.49,254.44,1122.54,255.87Z"/><path class="cls-4" d="M1187.12,169.4c-.07,1.37-.82,2.29-2.18,2.22a2.08,2.08,0,0,1-2-2.45,2,2,0,0,1,2-2C1186.37,167.12,1187.07,168,1187.12,169.4Z"/><path class="cls-4" d="M1175.2,341.15c-.07,1.36-.82,2.29-2.18,2.22a2.08,2.08,0,0,1-2-2.45,1.93,1.93,0,0,1,2-2C1174.46,338.86,1175.15,339.72,1175.2,341.15Z"/><path class="cls-4" d="M1038,282.94c-.07,1.36-.82,2.28-2.18,2.22a2.09,2.09,0,0,1-2-2.45,2,2,0,0,1,2-2C1037.2,280.65,1037.9,281.51,1038,282.94Z"/><path class="cls-3" d="M1042.28,177.54c-.75,1.33-1.84.94-2.72.42-2.44-1.44-3.75-.64-4.43,1.92-.27,1-.77,2.18-2.1,1.67s-1.17-1.69-.6-2.64c1.42-2.35.85-3.74-1.8-4.43-1.13-.29-2.35-.85-1.65-2.33.6-1.27,1.8-.85,2.7-.3,2.4,1.49,3.55.5,4.21-1.88.31-1.14.93-2.29,2.37-1.73s.92,1.88.48,2.68c-1.5,2.72-.24,3.85,2.23,4.55C1042,175.76,1042.61,176.41,1042.28,177.54Z"/><path class="cls-3" d="M973.07,312.55c-1.15,1-2.05.3-2.71-.48-1.85-2.16-3.34-1.82-4.82.38-.58.88-1.42,1.82-2.53.91s-.56-2,.29-2.69c2.1-1.77,2-3.27-.28-4.77-1-.64-1.95-1.56-.81-2.74,1-1,2-.22,2.65.59,1.8,2.18,3.2,1.61,4.59-.43.67-1,1.62-1.86,2.81-.87s.26,2.08-.41,2.69c-2.3,2.09-1.46,3.57.65,5A1.56,1.56,0,0,1,973.07,312.55Z"/><path class="cls-3" d="M969,723.19c.33,1.5-.74,1.93-1.74,2.13-2.78.55-3.22,2-2,4.39.47.93.89,2.13-.45,2.65s-2-.48-2.2-1.57c-.51-2.7-1.87-3.35-4.3-2.1-1,.54-2.32.94-2.78-.63-.41-1.36.77-1.84,1.8-2,2.78-.5,3-2,1.88-4.22-.53-1.05-.83-2.32.61-2.87s2,.79,2.15,1.68c.7,3,2.4,3,4.7,1.9A1.55,1.55,0,0,1,969,723.19Z"/><path class="cls-3" d="M827.64,668.69c.72,1.35-.19,2.06-1.1,2.52C824,672.5,824,674,825.78,676c.71.77,1.44,1.81.3,2.67s-2.06.09-2.55-.91c-1.23-2.46-2.71-2.72-4.71-.85-.85.8-2,1.53-2.85.15-.76-1.19.24-2,1.19-2.44,2.54-1.23,2.32-2.73.66-4.56-.8-.87-1.43-2-.19-2.93s2.08.23,2.52,1c1.49,2.72,3.13,2.26,5,.54A1.56,1.56,0,0,1,827.64,668.69Z"/><path class="cls-4" d="M1099,755.24a2,2,0,0,1,.71,3,2.07,2.07,0,0,1-3.13.36,1.93,1.93,0,0,1-.63-2.75C1096.71,754.65,1097.81,754.52,1099,755.24Z"/><path class="cls-4" d="M1001.63,705.26a2,2,0,0,1,.7,3,2.07,2.07,0,0,1-3.13.37,1.94,1.94,0,0,1-.63-2.76C999.29,704.67,1000.39,704.54,1001.63,705.26Z"/><path class="cls-4" d="M976.73,649.25a2.05,2.05,0,0,1,.71,3,2.09,2.09,0,0,1-3.14.36,1.94,1.94,0,0,1-.63-2.76C974.4,648.66,975.49,648.53,976.73,649.25Z"/><path class="cls-3" d="M1073.21,590.67c-1.08,1.07-2,.4-2.73-.33-2-2.06-3.43-1.64-4.78.63-.54.9-1.33,1.89-2.48,1s-.67-1.94.14-2.7c2-1.88,1.84-3.37-.53-4.75-1-.59-2-1.46-.95-2.69.93-1.07,2-.33,2.68.44,1.91,2.08,3.28,1.44,4.56-.67.61-1,1.52-1.94,2.76-1s.37,2.07-.28,2.72c-2.18,2.2-1.27,3.64.92,5A1.55,1.55,0,0,1,1073.21,590.67Z"/><path class="cls-4" d="M1105.83,608.67c-.07,1.37-.82,2.29-2.18,2.22a2.08,2.08,0,0,1-2-2.45,1.93,1.93,0,0,1,2-2C1105.09,606.38,1105.78,607.24,1105.83,608.67Z"/><path class="cls-4" d="M1139.83,557.67c-.07,1.37-.82,2.29-2.18,2.22a2.08,2.08,0,0,1-2-2.45,1.93,1.93,0,0,1,2-2C1139.09,555.38,1139.78,556.24,1139.83,557.67Z"/><path class="cls-3" d="M842.36,548.83c-.75,1.33-1.84.94-2.71.42-2.44-1.45-3.75-.64-4.44,1.92-.27,1-.76,2.18-2.1,1.67s-1.17-1.69-.59-2.64c1.42-2.35.85-3.74-1.81-4.43-1.13-.29-2.34-.85-1.64-2.33.6-1.28,1.8-.85,2.69-.3,2.4,1.49,3.55.5,4.21-1.89.31-1.13.93-2.28,2.38-1.72s.91,1.88.47,2.68c-1.5,2.72-.23,3.85,2.24,4.55C842.06,547.05,842.7,547.69,842.36,548.83Z"/><path class="cls-4" d="M801.07,534.86c-.07,1.37-.82,2.29-2.18,2.22a2.07,2.07,0,0,1-2-2.45,1.94,1.94,0,0,1,2-2C800.33,532.57,801,533.43,801.07,534.86Z"/><path class="cls-4" d="M891.8,545.24c-.07,1.37-.82,2.29-2.18,2.23a2.09,2.09,0,0,1-2-2.46,2,2,0,0,1,2-2C891.05,543,891.75,543.81,891.8,545.24Z"/><path class="cls-4" d="M845.37,585.48c-.07,1.36-.82,2.29-2.18,2.22a2.08,2.08,0,0,1-2-2.45,1.93,1.93,0,0,1,2-2C844.63,583.19,845.32,584.05,845.37,585.48Z"/><path class="cls-3" d="M684.55,509.11c-1.31.79-2.06-.09-2.57-1-1.4-2.47-2.94-2.42-4.8-.53-.73.74-1.74,1.52-2.65.41s-.18-2,.78-2.58c2.4-1.35,2.6-2.84.63-4.74-.84-.82-1.62-1.91-.28-2.85,1.16-.81,2,.15,2.49,1.08,1.36,2.47,2.84,2.18,4.59.44.84-.83,1.94-1.52,2.92-.33s-.13,2.09-.91,2.57c-2.65,1.62-2.11,3.23-.31,5.06A1.55,1.55,0,0,1,684.55,509.11Z"/><path class="cls-4" d="M691.89,673.51c-.07,1.37-.82,2.29-2.18,2.22a2.07,2.07,0,0,1-2-2.45,1.94,1.94,0,0,1,2-2C691.15,671.22,691.84,672.08,691.89,673.51Z"/><path class="cls-4" d="M719,720c-.07,1.37-.82,2.29-2.18,2.22a2.08,2.08,0,0,1-2-2.45,2,2,0,0,1,2-2C718.21,717.72,718.91,718.58,719,720Z"/></g></g></svg>